# xmcd CD database file
#
# Track frame offsets:
#	150
#	22503
#	38299
#	56217
#	77113
#	99509
#	123654
#	138755
#	158910
#	175901
#	197735
#	220369
#	241712
#	266180
#	285227
#	312442
#
# Disc length: 4462 seconds
#
# Revision: 10
# Processed by: cddbd v1.5.2PL0 Copyright (c) Steve Scherf et al.
# Submitted via: CDex 1.70beta3
#
DISCID=d4116c10
DTITLE=絢香 - ayaka's History 2006-2009 DISK:1
DYEAR=2009
DGENRE=JPop
TTITLE0=I believe
TTITLE1=melody
TTITLE2=Real voice
TTITLE3=三日月
TTITLE4=WINDING ROAD (ayaka 絢香 × Kobukuro コブクロ)
TTITLE5=Jewelry day
TTITLE6=CLAP and LOVE
TTITLE7=Why
TTITLE8=For today
TTITLE9=手をつなごう
TTITLE10=愛を歌おう
TTITLE11=おかえり
TTITLE12=あなたと (ayaka x Kobukuro)
TTITLE13=夢を味方に
TTITLE14=恋焦がれて見た夢
TTITLE15=みんな空の下
EXTD=YEAR: 2009
EXTT0=
EXTT1=
EXTT2=
EXTT3=
EXTT4=
EXTT5=
EXTT6=
EXTT7=
EXTT8=
EXTT9=
EXTT10=
EXTT11=
EXTT12=
EXTT13=
EXTT14=
EXTT15=
PLAYORDER=
